<?xml version="1.0" encoding="utf-8"?>
<!-- Generator: Adobe Illustrator 24.2.3, SVG Export Plug-In . SVG Version: 6.00 Build 0)  -->
<svg version="1.1" xmlns="http://www.w3.org/2000/svg" xmlns:xlink="http://www.w3.org/1999/xlink" x="0px" y="0px"
	 viewBox="0 0 885.4 357.4" style="enable-background:new 0 0 885.4 357.4;" xml:space="preserve">
<style type="text/css">
	.st0{fill:url(#SVGID_1_);}
	.st1{fill:url(#SVGID_2_);}
	.st2{fill:url(#SVGID_3_);}
	.st3{fill:#FFFFFF;}
</style>
<g id="Layer_1">
	<g>
		<g>
			
				<linearGradient id="SVGID_1_" gradientUnits="userSpaceOnUse" x1="54.5558" y1="-1146.5713" x2="166.1835" y2="-936.631" gradientTransform="matrix(1 0 0 -1 0 -872.129)">
				<stop  offset="0" style="stop-color:#FFFFFF"/>
				<stop  offset="0.1585" style="stop-color:#FFFFFF"/>
				<stop  offset="1" style="stop-color:#FFFFFF;stop-opacity:0"/>
			</linearGradient>
			<path class="st0" d="M95.2,283.5c-25.2,0-49-9.9-66.9-27.7c-17.9-17.9-28-41.7-28.3-67.1c-0.1-7.8,6.1-14.2,13.9-14.3
				c7.8-0.1,14.2,6.1,14.3,13.9c0.2,18.5,7.9,35.2,20,47.3c7,7,15.6,12.5,25,15.8c6.9,2.4,14.3,3.8,22,3.8
				c36.8,0,66.7-30.5,66.7-67.9V85.7c0-7.8,6.3-14.1,14.1-14.1s14.1,6.3,14.1,14.1v101.7C190.1,240.4,147.5,283.5,95.2,283.5z"/>
			
				<linearGradient id="SVGID_2_" gradientUnits="userSpaceOnUse" x1="197.0129" y1="-1008.2899" x2="42.0541" y2="-980.9661" gradientTransform="matrix(1 0 0 -1 0 -872.129)">
				<stop  offset="0" style="stop-color:#FFFFFF"/>
				<stop  offset="0.375" style="stop-color:#FFFFFF"/>
				<stop  offset="0.9956" style="stop-color:#FFFFFF;stop-opacity:0.2"/>
			</linearGradient>
			<path class="st1" d="M140,97.6c0-47.8,34.5-73.2,66.8-73.2c5.6,0,11.9-5.1,11.9-12.3c0-6.7-5.6-12.1-12.3-12.1
				c-20.8,0-38.3,6-52.4,15.6c-27.7,19-42.1,52.3-42.1,82.7v86.2c0,23.5-18.8,42.7-41.9,42.7c-21.9,0-40.3-17.5-41.8-39.8
				c0,0,0,0.4,0,0.9c0.3,25.1,14.3,47,34.6,58.4c6.3,3.5,13.1,6.1,20.4,7.4c32.3-6.3,56.8-35.1,56.8-69.6V97.6z"/>
			
				<linearGradient id="SVGID_3_" gradientUnits="userSpaceOnUse" x1="35.9416" y1="-896.4492" x2="168.9012" y2="-896.4492" gradientTransform="matrix(1 0 0 -1 0 -872.129)">
				<stop  offset="0" style="stop-color:#FFFFFF"/>
				<stop  offset="0.375" style="stop-color:#FFFFFF"/>
				<stop  offset="0.9956" style="stop-color:#FFFFFF;stop-opacity:0.2"/>
			</linearGradient>
			<path class="st2" d="M168.9,7.3c-17,6.7-34.9,10.1-53.2,10.1c-20.9,0-41-4.4-60-12.9c-7-3.2-15.3-0.1-18.5,7
				c-3.2,7-0.1,15.3,7,18.5c22.6,10.2,46.7,15.4,71.5,15.4c3.6,0,7.3-0.1,10.9-0.3c3-5,6.4-9.7,10.2-14.1
				C145.4,21,156.1,12.8,168.9,7.3z"/>
		</g>
	</g>
	<path class="st3" d="M376.3,177.3c0-29.3,21.7-53,52.4-53c27.5,0,50.7,18.7,50.7,57.1c0,2.3-2,4.7-4.7,4.7c-2.6,0-70.6,0-70.6,0
		c1.8,12.3,12,22.5,29,22.5c7.3,0,16.7-2.6,23.4-7c2.3-1.5,5-0.6,6.4,1.5c0.9,1.2,4.4,6.4,6.7,10c1.5,2.3,0.3,5.3-1.2,6.1
		c-10.2,7.3-24.3,11.1-38.4,11.1C399.7,230.3,376.3,209.8,376.3,177.3z M428.7,146c-16.7,0-23.7,11.4-24.6,21.7h49.8
		C453,158,446.2,146,428.7,146z"/>
	<path class="st3" d="M668.7,177.3c0-29.3,21.7-53,52.4-53c27.5,0,50.7,18.7,50.7,57.1c0,2.3-2,4.7-4.7,4.7s-70.6,0-70.6,0
		c1.8,12.3,12,22.5,29,22.5c7.3,0,16.7-2.6,23.4-7c2.3-1.5,5-0.6,6.4,1.5c0.9,1.2,4.4,6.4,6.7,10c1.5,2.3,0.3,5.3-1.2,6.1
		c-10.2,7.3-24.3,11.1-38.4,11.1C691.9,230.3,668.7,209.8,668.7,177.3z M721.2,146c-16.7,0-23.7,11.4-24.6,21.7h49.8
		C745.5,158,738.7,146,721.2,146z"/>
	<path class="st3" d="M496.9,223.3c0-2,0-72.9,0-91.9c0-2.9,2.6-4.7,4.7-4.7c1.5,0,11.4,0,17.3,0c2.6,0,4.7,2.3,4.7,4.7
		c0,2.3,0,9.1,0,9.1c6.1-7.6,16.4-14.1,26.9-15.8c2.6-0.3,5.3,1.8,5.3,4.7c0,5.6,0,13.8,0,15.8c0,2.9-2.9,4.7-4.7,4.7
		c-10.5-0.9-23.4,6.4-27.5,17c0,0,0,54.5,0,56.8c0,2.3-2,4.7-4.7,4.7c-5.9,0-15.5,0-17.3,0C498.6,228,496.9,225.6,496.9,223.3z"/>
	<path class="st3" d="M567.4,211c2.3-3.8,5.9-9.7,6.7-11.1c1.5-2.6,4.7-2.6,6.4-1.2c8.2,5.9,20.5,10.8,31,10.8
		c11.4,0,17-4.4,17-10.5c0-16.7-60-2.9-60-42.7c0-17,14.6-31.9,41.6-31.9c15.2,0,27.8,4.7,37.5,11.4c1.2,0.9,2.6,3.2,1.2,6.1
		c-0.9,1.5-3.5,6.4-5.9,10.2c-1.8,2.9-5.3,2.6-6.4,1.8c-6.4-4.7-16.1-8.5-26.1-8.5c-9.7,0-15.8,4.1-15.8,10c0,14.9,60,2.3,60,43
		c0,18.7-15.8,32.2-43.9,32.2c-16.1,0-31.3-5-42.2-13.2C567.2,216.5,565.7,213.9,567.4,211z"/>
	<path class="st3" d="M858.2,131.3c0,18.2,0,47.7,0,53.6c0,8.8-7.6,17.9-21.4,17.9c-13.5,0-20.5-10.2-20.5-17.9
		c0-10.5,0-41.3,0-53.6c0-2.3-1.8-4.7-4.7-4.7c-2,0-11.4,0-17.3,0c-2.6,0-4.7,2.3-4.7,4.7c0,10.8,0,56.2,0,56.2
		c0,24.3,22,40.7,46.8,40.4c14.1-0.3,18.7-4.7,22-6.7c0,15.2-7.6,23.1-16.4,25.5c-10.2,2.6-23.7,2.9-37.8-7.3
		c-2.6-1.8-5.6-0.3-6.4,1.2c-2.3,3.5-4.7,7.3-6.7,10.8c-1.5,2.6-0.9,5,1.2,6.4c20.5,15.2,43.3,12.6,54.7,10.5
		c22.8-4.4,38.4-24.6,38.4-43.9c0-26.1,0-77,0-92.5c0-2.3-1.8-4.7-4.7-4.7c-2,0-11.4,0-17.3,0C860.2,126.7,858.2,129,858.2,131.3z"
		/>
	<path class="st3" d="M360.7,99.4c0-2.3-1.8-4.7-4.7-4.7c-2,0-12.6,0-18.4,0c-2.6,0-4.7,2.3-4.7,4.7c0,28.7,0,2,0,82.3
		c0,12-9.4,22.8-23.4,22.8c-5.6,0-15.5-2.6-20.8-10.8c-1.5-2-3.5-2.6-5.9-1.8c-1.8,0.9-10.2,4.7-15.5,7c-2.6,1.2-2.9,5-2,6.4
		c4.4,7.6,16.7,24,44.2,24c34,0,51.2-21.4,51.2-53.9C360.7,175,360.7,101.8,360.7,99.4z"/>
	<g>
		<path class="st3" d="M525.7,337.8c0-11.2,7.6-19.7,18.9-19.7s18.9,8.4,18.9,19.7s-7.7,19.7-18.9,19.7S525.7,349,525.7,337.8z
			 M558.6,337.8c0-8.9-5.5-15.5-14-15.5c-8.6,0-14,6.6-14,15.5c0,8.8,5.4,15.5,14,15.5C553.1,353.2,558.6,346.6,558.6,337.8z"/>
		<path class="st3" d="M572,356.8V333h-4.6v-3.8h4.6v-2.1c0-5.6,3.1-9,8-9c2.2,0,4.1,0.5,5.8,2.1L584,323c-0.9-0.8-2-1.3-3.4-1.3
			c-2.9,0-4.4,1.9-4.4,5.4v2.1h5.6v3.8h-5.6v23.8H572z M588.2,356.8V333h-4.6v-3.8h4.6v-2.1c0-5.7,3.3-9,8-9c1.7,0,3.1,0.3,4.2,0.9
			l-1.1,3.3c-0.7-0.4-1.4-0.6-2.5-0.6c-2.9,0-4.4,1.9-4.4,5.4v2.1h5.6v3.8h-5.6v23.8H588.2z M602.4,322.4c0-1.6,1.3-2.9,2.9-2.9
			c1.6,0,2.9,1.3,2.9,2.9c0,1.6-1.3,2.9-2.9,2.9C603.7,325.3,602.4,324,602.4,322.4z M603.1,356.8v-27.5h4.3v27.5H603.1z"/>
		<path class="st3" d="M613.5,343c0-8.2,5.5-14.4,13.7-14.4c5,0,8,2.1,10.1,4.8l-2.9,2.6c-1.8-2.5-4.2-3.5-7-3.5
			c-5.8,0-9.5,4.5-9.5,10.6c0,6.1,3.7,10.7,9.5,10.7c2.9,0,5.2-1.1,7-3.6l2.9,2.6c-2.1,2.7-5.1,4.8-10.1,4.8
			C619,357.4,613.5,351.1,613.5,343z"/>
		<path class="st3" d="M641.5,322.4c0-1.6,1.3-2.9,2.9-2.9s2.9,1.3,2.9,2.9c0,1.6-1.3,2.9-2.9,2.9S641.5,324,641.5,322.4z
			 M642.2,356.8v-27.5h4.3v27.5H642.2z"/>
		<path class="st3" d="M671.2,356.8v-3.1c-2.2,2.5-5.4,3.8-9.1,3.8c-4.6,0-9.6-3.1-9.6-9.1c0-6.2,4.9-9.1,9.6-9.1
			c3.8,0,6.9,1.2,9.1,3.7v-5c0-3.7-3-5.8-7-5.8c-3.3,0-6,1.1-8.4,3.8l-2-3c3-3.1,6.5-4.6,11-4.6c5.9,0,10.7,2.6,10.7,9.3v18.9H671.2
			z M671.2,350.9v-5.2c-1.7-2.2-4.6-3.4-7.5-3.4c-4,0-6.8,2.5-6.8,6c0,3.5,2.8,6,6.8,6C666.6,354.4,669.5,353.2,671.2,350.9z"/>
		<path class="st3" d="M683.1,356.8v-38h4.3v38H683.1z"/>
		<path class="st3" d="M710.9,356.8v-38h15.3c7.6,0,11.9,5.2,11.9,11.5c0,6.2-4.3,11.5-11.9,11.5h-10.6v15.1H710.9z M733.2,330.2
			c0-4.3-3.1-7.2-7.6-7.2h-10v14.5h10C730.1,337.4,733.2,334.5,733.2,330.2z"/>
		<path class="st3" d="M760.3,356.8v-3.1c-2.2,2.5-5.4,3.8-9.1,3.8c-4.6,0-9.6-3.1-9.6-9.1c0-6.2,4.9-9.1,9.6-9.1
			c3.8,0,6.9,1.2,9.1,3.7v-5c0-3.7-3-5.8-7-5.8c-3.3,0-6,1.1-8.4,3.8l-2-3c3-3.1,6.5-4.6,11-4.6c5.9,0,10.7,2.6,10.7,9.3v18.9H760.3
			z M760.3,350.9v-5.2c-1.7-2.2-4.6-3.4-7.5-3.4c-4,0-6.8,2.5-6.8,6c0,3.5,2.8,6,6.8,6C755.7,354.4,758.6,353.2,760.3,350.9z"/>
		<path class="st3" d="M772.2,356.8v-27.5h4.3v4.4c2.2-2.9,5.4-5,9.2-5v4.4c-0.5-0.1-1-0.1-1.7-0.1c-2.7,0-6.3,2.2-7.5,4.4v19.5
			H772.2z"/>
		<path class="st3" d="M793,351v-18h-4.6v-3.8h4.6v-7.5h4.3v7.5h5.6v3.8h-5.6v17.1c0,2.1,0.9,3.5,2.7,3.5c1.3,0,2.3-0.6,2.9-1.2
			l1.3,3.3c-1.1,1-2.6,1.8-5.1,1.8C795.1,357.4,793,355.1,793,351z"/>
		<path class="st3" d="M827.1,356.8v-18c0-4.9-2.5-6.4-6.2-6.4c-3.4,0-6.5,2.1-8.2,4.3v20.1h-4.3v-27.5h4.3v4
			c1.9-2.3,5.7-4.7,9.9-4.7c5.7,0,8.7,2.9,8.7,8.9v19.3H827.1z"/>
		<path class="st3" d="M837.4,343c0-8,5.7-14.4,13.6-14.4c8.3,0,13.2,6.5,13.2,14.8v1.1H842c0.3,5.2,3.9,9.5,9.9,9.5
			c3.2,0,6.3-1.3,8.6-3.5l2.1,2.8c-2.8,2.7-6.5,4.3-11,4.3C843.3,357.4,837.4,351.6,837.4,343z M850.9,332.1c-5.9,0-8.8,5-9,9.1H860
			C859.9,337.1,857.2,332.1,850.9,332.1z"/>
		<path class="st3" d="M870.2,356.8v-27.5h4.3v4.4c2.2-2.9,5.4-5,9.2-5v4.4c-0.5-0.1-1-0.1-1.7-0.1c-2.7,0-6.3,2.2-7.5,4.4v19.5
			H870.2z"/>
	</g>
</g>
<g id="Layer_2">
</g>
</svg>
