<svg width="232" height="371" viewBox="0 0 232 371" fill="none" xmlns="http://www.w3.org/2000/svg">
<g clip-path="url(#clip0)">
<path d="M108 283.5C82.8 283.5 59 273.6 41.1 255.8C23.2 237.9 13.1 214.1 12.8 188.7C12.7 180.9 18.9 174.5 26.7 174.4C34.5 174.3 40.9 180.5 41 188.3C41.2 206.8 48.9 223.5 61 235.6C68 242.6 76.6 248.1 86 251.4C92.9 253.8 100.3 255.2 108 255.2C144.8 255.2 174.7 224.7 174.7 187.3V85.7C174.7 77.9 181 71.6 188.8 71.6C196.6 71.6 202.9 77.9 202.9 85.7V187.4C202.9 240.4 160.3 283.5 108 283.5Z" fill="url(#paint0_linear)"/>
<path d="M152.8 97.6C152.8 49.8 187.3 24.4 219.6 24.4C225.2 24.4 231.5 19.3 231.5 12.1C231.5 5.4 225.9 0 219.2 0C198.4 0 180.9 6 166.8 15.6C139.1 34.6 124.7 67.9 124.7 98.3V184.5C124.7 208 105.9 227.2 82.8 227.2C60.9 227.2 42.5 209.7 41 187.4C41 187.4 41 187.8 41 188.3C41.3 213.4 55.3 235.3 75.6 246.7C81.9 250.2 88.7 252.8 96 254.1C128.3 247.8 152.8 219 152.8 184.5V97.6Z" fill="url(#paint1_linear)"/>
<path d="M181.7 7.3C164.7 14 146.8 17.4 128.5 17.4C107.6 17.4 87.5 13 68.5 4.5C61.5 1.3 53.2 4.4 50 11.5C46.8 18.5 49.9 26.8 57 30C79.6 40.2 103.7 45.4 128.5 45.4C132.1 45.4 135.8 45.3 139.4 45.1C142.4 40.1 145.8 35.4 149.6 31C158.2 21 168.9 12.8 181.7 7.3Z" fill="url(#paint2_linear)"/>
<path d="M38 338.7C38 328.7 45.4 320.6 55.9 320.6C65.3 320.6 73.2 327 73.2 340.1C73.2 340.9 72.5 341.7 71.6 341.7C70.7 341.7 47.5 341.7 47.5 341.7C48.1 345.9 51.6 349.4 57.4 349.4C59.9 349.4 63.1 348.5 65.4 347C66.2 346.5 67.1 346.8 67.6 347.5C67.9 347.9 69.1 349.7 69.9 350.9C70.4 351.7 70 352.7 69.5 353C66 355.5 61.2 356.8 56.4 356.8C46 356.8 38 349.8 38 338.7ZM55.9 328C50.2 328 47.8 331.9 47.5 335.4H64.5C64.2 332.1 61.9 328 55.9 328Z" fill="white"/>
<path d="M137.9 338.7C137.9 328.7 145.3 320.6 155.8 320.6C165.2 320.6 173.1 327 173.1 340.1C173.1 340.9 172.4 341.7 171.5 341.7C170.6 341.7 147.4 341.7 147.4 341.7C148 345.9 151.5 349.4 157.3 349.4C159.8 349.4 163 348.5 165.3 347C166.1 346.5 167 346.8 167.5 347.5C167.8 347.9 169 349.7 169.8 350.9C170.3 351.7 169.9 352.7 169.4 353C165.9 355.5 161.1 356.8 156.3 356.8C145.8 356.8 137.9 349.8 137.9 338.7ZM155.8 328C150.1 328 147.7 331.9 147.4 335.4H164.4C164.1 332.1 161.8 328 155.8 328Z" fill="white"/>
<path d="M79.2 354.4C79.2 353.7 79.2 329.5 79.2 323C79.2 322 80.1 321.4 80.8 321.4C81.3 321.4 84.7 321.4 86.7 321.4C87.6 321.4 88.3 322.2 88.3 323C88.3 323.8 88.3 326.1 88.3 326.1C90.4 323.5 93.9 321.3 97.5 320.7C98.4 320.6 99.3 321.3 99.3 322.3C99.3 324.2 99.3 327 99.3 327.7C99.3 328.7 98.3 329.3 97.7 329.3C94.1 329 89.7 331.5 88.3 335.1C88.3 335.1 88.3 353.7 88.3 354.5C88.3 355.3 87.6 356.1 86.7 356.1C84.7 356.1 81.4 356.1 80.8 356.1C79.8 356 79.2 355.2 79.2 354.4Z" fill="white"/>
<path d="M103.3 350.2C104.1 348.9 105.3 346.9 105.6 346.4C106.1 345.5 107.2 345.5 107.8 346C110.6 348 114.8 349.7 118.4 349.7C122.3 349.7 124.2 348.2 124.2 346.1C124.2 340.4 103.7 345.1 103.7 331.5C103.7 325.7 108.7 320.6 117.9 320.6C123.1 320.6 127.4 322.2 130.7 324.5C131.1 324.8 131.6 325.6 131.1 326.6C130.8 327.1 129.9 328.8 129.1 330.1C128.5 331.1 127.3 331 126.9 330.7C124.7 329.1 121.4 327.8 118 327.8C114.7 327.8 112.6 329.2 112.6 331.2C112.6 336.3 133.1 332 133.1 345.9C133.1 352.3 127.7 356.9 118.1 356.9C112.6 356.9 107.4 355.2 103.7 352.4C103.2 352.1 102.7 351.2 103.3 350.2Z" fill="white"/>
<path d="M202.6 323C202.6 329.2 202.6 339.3 202.6 341.3C202.6 344.3 200 347.4 195.3 347.4C190.7 347.4 188.3 343.9 188.3 341.3C188.3 337.7 188.3 327.2 188.3 323C188.3 322.2 187.7 321.4 186.7 321.4C186 321.4 182.8 321.4 180.8 321.4C179.9 321.4 179.2 322.2 179.2 323C179.2 326.7 179.2 342.2 179.2 342.2C179.2 350.5 186.7 356.1 195.2 356C200 355.9 201.6 354.4 202.7 353.7C202.7 358.9 200.1 361.6 197.1 362.4C193.6 363.3 189 363.4 184.2 359.9C183.3 359.3 182.3 359.8 182 360.3C181.2 361.5 180.4 362.8 179.7 364C179.2 364.9 179.4 365.7 180.1 366.2C187.1 371.4 194.9 370.5 198.8 369.8C206.6 368.3 211.9 361.4 211.9 354.8C211.9 345.9 211.9 328.5 211.9 323.2C211.9 322.4 211.3 321.6 210.3 321.6C209.6 321.6 206.4 321.6 204.4 321.6C203.3 321.4 202.6 322.2 202.6 323Z" fill="white"/>
<path d="M32.7 312.1C32.7 311.3 32.1 310.5 31.1 310.5C30.4 310.5 26.8 310.5 24.8 310.5C23.9 310.5 23.2 311.3 23.2 312.1C23.2 321.9 23.2 312.8 23.2 340.2C23.2 344.3 20 348 15.2 348C13.3 348 9.9 347.1 8.1 344.3C7.6 343.6 6.9 343.4 6.1 343.7C5.5 344 2.6 345.3 0.800001 346.1C-0.0999989 346.5 -0.199999 347.8 0.100001 348.3C1.6 350.9 5.8 356.5 15.2 356.5C26.8 356.5 32.7 349.2 32.7 338.1C32.7 337.9 32.7 312.9 32.7 312.1Z" fill="white"/>
</g>
<defs>
<linearGradient id="paint0_linear" x1="67.3175" y1="274.4" x2="178.948" y2="64.4544" gradientUnits="userSpaceOnUse">
<stop stop-color="white"/>
<stop offset="0.1585" stop-color="white"/>
<stop offset="1" stop-color="white" stop-opacity="0"/>
</linearGradient>
<linearGradient id="paint1_linear" x1="209.713" y1="136.17" x2="54.7925" y2="108.853" gradientUnits="userSpaceOnUse">
<stop stop-color="white"/>
<stop offset="0.375" stop-color="white"/>
<stop offset="0.9956" stop-color="white" stop-opacity="0.2"/>
</linearGradient>
<linearGradient id="paint2_linear" x1="48.8258" y1="24.2679" x2="181.737" y2="24.2679" gradientUnits="userSpaceOnUse">
<stop stop-color="white"/>
<stop offset="0.375" stop-color="white"/>
<stop offset="0.9956" stop-color="white" stop-opacity="0.2"/>
</linearGradient>
<clipPath id="clip0">
<rect width="231.4" height="370.3" fill="white"/>
</clipPath>
</defs>
</svg>
